Coordinates
version=1
nRows=17
nColumns=24
inDegrees=yes

Units are S.I. units (second, meters, Newtons, ...)
If the header above contains a line with 'inDegrees', this indicates whether rotational values are in degrees (yes) or radians (no).

endheader
time	pelvis_tilt	pelvis_list	pelvis_rotation	pelvis_tx	pelvis_ty	pelvis_tz	hip_flexion_r	hip_adduction_r	hip_rotation_r	knee_angle_r	ankle_angle_r	subtalar_angle_r	mtp_angle_r	hip_flexion_l	hip_adduction_l	hip_rotation_l	knee_angle_l	ankle_angle_l	subtalar_angle_l	mtp_angle_l	lumbar_extension	lumbar_bending	lumbar_rotation
1.0	5.1585478257398005	3.3435257405943077	5.456831128346444	0.5969125580843402	1.0405447837118542	-0.007962101012495955	37.82707904219711	-5.283700492115598	-10.385280106757744	-29.085735586054334	-0.8356119056495421	-6.085322039978307e-06	3.61723091022136e-10	-19.999717004509407	4.766511847854604	7.471431544409066	-52.39637958228533	12.3293633498859	4.36134423799403e-06	-2.0830715517462476e-16	-14.881437567663136	-0.948853567376805	-11.711779640950278
1.017	4.637937690071915	0.18743363616121844	-2.6489111801938385	0.5962316123374874	1.031393670570661	0.05679669886841694	-18.783090482430868	2.667448168888675	2.120165745529429	-4.829958624947756	11.118660052346272	4.632375129825131e-06	-4.519659838149196e-10	28.764918797056808	-3.6262269550960324	-5.1684710367553635	-59.78851740708538	-1.7588019450222943	-4.096264943035281e-06	3.053498782836059e-16	-16.196139017299416	-1.3921787517844284	4.58143387489608
1.033	4.742727050845471	0.7014500348789343	-0.08421008134309789	0.5869955619226059	1.024941608228713	0.03189332320897249	0.5677051767617929	0.19236818840607928	-2.684661093158698	-4.568222867455126	5.277903108455204	-8.136574546330893e-08	2.385911550346813e-10	6.285570453395417	-0.6287749891791612	-0.5309514051513782	-34.59545022345337	6.323187757025669	-8.457806509620108e-07	-3.015839253577441e-16	-16.250101304834118	-0.5089718550519766	-1.0145091792840526
1.05	5.266372560677988	0.3587956715450429	3.1832660391850354	0.5883678358194288	1.0439907855726278	0.04405642280592484	6.138699992420698	2.1004419542471626	-6.742634179352946	-5.76953789513713	4.500370845323411	-5.89293215264564e-06	-3.6665280959623156e-10	8.29227960730479	-3.031377720934445	-4.546492211218569	-45.92019019263703	3.7835464658582865	-9.627305541922695e-07	1.6335106973769922e-16	-16.88000682990771	3.657645229449619	-1.9149446417872598
1.067	4.849079257722805	-4.702969694401375	-2.191058059984875	0.5728198992061391	1.0485333501117393	0.04680303055379906	-12.972716374077947	5.73922379622135	-3.3004862547695435	-15.862628668114274	14.951468137275256	-3.5386415057015343e-06	-9.778541348429718e-10	24.077961065627022	-6.8079384345390626	-10.74951346530464	-9.617720852731225	-2.2290957619681193	-6.340267487747305e-06	-4.4631463230103235e-17	-17.61640345964906	4.109200725019569	4.376891404902326
1.083	4.639612847509382	-2.5905180316065692	-0.6651671086238391	0.5948425209015284	1.032098375842818	0.07698625535103444	-21.9977930422276	7.531106861719807	1.3869822066511879	-1.5939822915516642	10.824611738786421	1.2291238381703911e-06	7.790811621866548e-10	31.518211009870853	-9.102117602425126	-9.292500476639226	-51.804262242650594	-4.849287891307891	-4.371690740264363e-06	-9.444697203457591e-17	-16.365923683952378	4.801276403278028	5.666427629166092
1.1	4.8571277753217945	1.9828014132252911	1.6356234560878358	0.587577538820814	1.0439382809846691	0.045330471093972265	0.9762018942843156	1.696598263617783	-5.620368219026997	7.439865651542744	5.690729482456608	-5.486244346082056e-07	4.729606680196275e-10	12.091926413379893	-2.188966530209066	-6.619914954730424	-54.675917475313	5.214174557945042	-6.544551760677907e-06	1.1046273210728217e-15	-16.572522870965745	0.08640660458362337	-0.14456566731917375
1.117	4.812557633042005	-1.0072694735113215	-0.9374632468985076	0.5868418575649912	1.0335661047008744	0.0392931374207363	-6.079121289770645	2.0388118830770066	-2.3358830748967137	-13.032189532482874	7.488462983705141	-1.8122533323683891e-06	-4.187059244712047e-10	13.69075308221175	-2.9614810054649974	-7.81860600521892	-23.335221351823705	0.6939915935823817	-4.701412539532634e-06	-1.941636379164395e-16	-16.18198319398586	0.878126994298126	0.821415080273781
1.133	4.578386782200663	-1.3592567762904026	-2.0188409662734403	0.5832423410603348	1.0367995548651465	0.054000648300820596	-15.324307190104436	3.5814239068608913	-1.7202840472551637	-3.7711452843896893	8.227656070601098	-6.120535416490904e-08	1.6727593623463738e-10	25.149816223115216	-4.78016344324281	-11.851090007648391	-30.560741123247222	-2.4802202402709885	-5.714911612522556e-06	1.1841339342369686e-15	-16.756409795830084	1.1485880125199373	4.462529572593167
1.15	4.624905821177116	-2.1689881544422995	-2.667712021856207	0.5764561553548454	1.0303637208765508	0.04866690409590402	-15.334699716060872	3.3992723516461294	0.11105007864351696	-4.826993487275218	10.37071197127225	-2.8006890253318934e-06	-1.5585752865889833e-10	20.012125219403877	-4.38518287446316	-8.812251195507944	-11.841403926303942	1.3904799316121503	-5.096022343373661e-06	1.7563216151355082e-15	-17.295725203589065	1.6175561322179635	4.192944479598336
1.167	3.837097870662718	-4.3784684642502	0.7212897505198197	0.5647443496670218	1.0342907331339053	0.048205350529861996	-6.740975785199229	8.464257368131992	-2.3677449717883583	13.412914987893867	15.632199468578676	-1.2042481980074661e-06	1.497708871987672e-10	12.016466138800265	-6.732763111261177	-7.560981850395244	-1.906544819230695	2.035289396187064	-2.2804986355217836e-06	-2.6558453051518434e-16	-17.3652195153956	6.4899254448074775	1.657523035587233
1.183	5.0481072394081865	-5.354069625599748	-5.393850848817806	0.5916660013580332	1.0158598475550216	0.07666279595482131	-37.195796924060375	6.856658312398768	6.923331150240921	-20.77549976625444	10.237459451662133	-1.7554560544502696e-06	-5.603650601526697e-10	35.516370772075334	-9.76540530729772	-10.993773207616321	-8.565348051165628	-6.160011535917711	-3.1973190498287987e-06	1.0275332191428736e-15	-16.91477776809933	4.3724616946446275	9.596187683800604
1.2	4.886417342304742	-4.147330669473439	-4.513325269603538	0.5814727962016917	1.0330867147239324	0.03243488207919747	-14.714480452045557	2.422119441176798	-2.52946578498664	-27.2005872759065	9.867399284138596	2.0492208285187352e-07	6.864919296214336e-10	21.448344151121784	-3.8303908535596087	-6.068921147415768	-5.67409652004389	-2.124041828524385	-2.629196895575538e-06	1.1415095339913115e-15	-16.794213058708593	0.34642951865636684	4.158017377757255
1.217	4.6683625629882	-6.824967472582104	-6.6533604665410255	0.5819286470797929	1.0228923628869186	0.06386101453794275	-36.380408669632075	7.327142682335994	2.8734642482472106	-18.225838970235195	14.78059329156718	2.6399491053392478e-06	3.297494289233426e-10	38.57014327238828	-9.070194236825392	-9.316511089984765	-6.362665111027061	-8.382649799263616	-2.1986512626943496e-06	2.321547567287121e-16	-17.345391262522607	3.2643864510699214	10.081249550178516
1.233	4.350694282349391	-4.622892633714502	-5.316840597638986	0.5780613397261508	0.9975714160811123	0.03456238446435013	-21.077621762316372	3.3198067877047004	3.893727555909359	-6.980005397898014	12.941203440316166	1.2658422608680768e-06	1.0042243314979504e-09	12.773327422895296	-4.142006108086542	-2.4017897481411303	10.708520052481747	-1.6464394300049565	1.1521062535363422e-06	1.1324009136563287e-15	-16.386845574460356	1.264706763827603	3.478027633107055
1.25	3.826193149511724	-5.726399515840987	-7.826955379773523	0.5701035566307155	1.00265835547175	0.07147176897376818	-46.432654841105645	8.882031104397141	8.078975128277001	22.85100466418325	22.202125627567426	6.979041181511829e-06	5.895624782473284e-10	36.78064820113333	-8.91244805443427	-8.819477901596242	0.8139155535838372	-6.043664138618625	-4.5771311487790066e-06	-1.3524795946553162e-15	-17.7004855743208	2.287965434016785	11.417782190702031
1.267	5.355618141611892	-2.5180146906023797	-2.471790342519528	0.6054522408185092	0.9937722620133402	0.017125692111124396	-5.081035474969788	-0.9481518770266537	3.5267989298160956	-43.352337951998976	3.4748320200707035	1.5013452150761808e-06	2.3460513801919214e-10	0.6044606821318297	-1.0550552339003452	4.243744517166329	-10.735781369966148	-0.1282749011569626	6.3175967639810375e-06	8.686207183479861e-16	-14.51411213060485	-0.07541044210667858	-2.8386215177238965
